<?xml version="1.0" encoding="utf-8"?>
<!-- Generator: Adobe Illustrator 16.0.4, SVG Export Plug-In . SVG Version: 6.00 Build 0)  -->
<!DOCTYPE svg PUBLIC "-//W3C//DTD SVG 1.1//EN" "http://www.w3.org/Graphics/SVG/1.1/DTD/svg11.dtd">
<svg version="1.1" id="Layer_1" xmlns="http://www.w3.org/2000/svg" xmlns:xlink="http://www.w3.org/1999/xlink" x="0px" y="0px"
	 viewBox="0 0 452.965 452.965" enable-background="new 0 0 452.965 452.965"
	 xml:space="preserve">
<path d="M225.712,38.823c102.533,0,185.953,83.416,185.953,185.949s-83.42,185.953-185.953,185.953
	c-102.533,0-185.953-83.42-185.953-185.953S123.179,38.823,225.712,38.823 M225.712,20.682
	c-112.724,0-204.095,91.371-204.095,204.09c0,112.724,91.371,204.095,204.095,204.095c112.72,0,204.095-91.371,204.095-204.095
	C429.807,112.053,338.432,20.682,225.712,20.682L225.712,20.682z"/>
<path d="M225.712,202.1c-12.513,0-22.677,10.15-22.677,22.672c0,12.518,10.164,22.677,22.677,22.677s22.677-10.159,22.677-22.677
	C248.389,212.25,238.225,202.1,225.712,202.1L225.712,202.1z"/>
<path d="M225.712,351.766c-12.513,0-22.677,10.148-22.677,22.676c0,12.519,10.164,22.679,22.677,22.679s22.677-10.16,22.677-22.679
	C248.389,361.914,238.225,351.766,225.712,351.766L225.712,351.766z"/>
<path d="M322.471,173.485c-10.01,0-18.142,8.123-18.142,18.142c0,10.014,8.132,18.142,18.142,18.142
	c10.011,0,18.144-8.128,18.144-18.142C340.613,181.608,332.48,173.485,322.471,173.485L322.471,173.485z"/>
<path d="M114.762,111.391c-7.506,0-13.606,6.091-13.606,13.606c0,7.511,6.1,13.606,13.606,13.606
	c7.506,0,13.606-6.095,13.606-13.606C128.368,117.481,122.268,111.391,114.762,111.391L114.762,111.391z"/>
<path d="M125.724,323.622c0,0,2.354,2.19,6.753,6.31c1.102,1.029,2.335,2.172,3.687,3.441c1.343,1.029,2.808,2.146,4.395,3.355
	c1.583,1.217,3.279,2.521,5.089,3.914c1.773,1.43,4.063,2.623,6.259,4.068c8.785,5.96,20.604,11.384,34.678,15.878
	c14.164,4.509,30.832,6.728,49.409,5.666c5.007,0.026,9.229-0.948,13.887-1.521c4.586-0.407,9.316-1.887,14.115-2.983
	c9.583-2.433,19.106-6.296,28.56-10.944c18.781-9.564,36.201-24.369,49.948-42.941c1.855-2.228,3.379-4.698,4.89-7.188
	c1.547-2.477,3.099-4.963,4.648-7.452c1.307-2.636,2.612-5.279,3.928-7.929c1.356-2.635,2.672-5.301,3.615-8.136
	c1.057-2.785,2.122-5.583,3.184-8.391c1.029-2.816,1.624-5.778,2.468-8.676c1.837-5.774,2.566-11.815,3.593-17.833
	c0.647-2.993,0.594-6.073,0.848-9.13c0.149-2.953,0.463-6.354,0.494-8.966l-0.376-9.565l-0.189-4.794l-0.648-4.513l-1.274-9.053
	c-0.604-3.021-1.441-6.032-2.153-9.053c-1.197-6.127-3.721-11.86-5.68-17.779c-4.938-11.407-10.595-22.677-18.296-32.501
	c-3.461-5.207-7.904-9.597-11.955-14.305c-2.104-2.277-4.5-4.263-6.727-6.413c-2.276-2.1-4.463-4.299-7.003-6.073
	c-19.284-15.38-42.048-26.002-65.405-29.902c-23.28-4.164-46.815-2.64-67.664,3.37c-20.981,6.037-39.214,16.695-53.791,28.972
	c-14.572,12.359-25.693,26.306-33.327,39.885c-2.004,3.338-3.483,6.831-5.161,10.06c-0.785,1.642-1.66,3.211-2.331,4.835
	c-0.622,1.642-1.229,3.251-1.828,4.83c-1.156,3.17-2.431,6.164-3.352,9.116c-0.807,2.994-1.574,5.846-2.304,8.554
	c-1.692,5.37-2.109,10.396-2.917,14.686c-0.857,4.291-1.029,8.005-1.188,11.012c-0.358,6.028-0.558,9.239-0.558,9.239
	s0.127-3.211,0.363-9.239c0.095-3.016,0.181-6.744,0.948-11.057c0.712-4.313,1.025-9.379,2.599-14.808
	c0.671-2.74,1.383-5.629,2.127-8.654c0.862-2.994,2.077-6.032,3.175-9.252c0.567-1.604,1.147-3.243,1.737-4.912
	c0.644-1.651,1.488-3.252,2.241-4.926c1.619-3.297,3.039-6.857,4.994-10.277c7.416-13.901,18.369-28.296,32.936-41.218
	c14.577-12.835,32.978-24.165,54.421-30.85c21.466-6.681,45.559-8.79,69.852-5.007c24.354,3.529,48.396,14.051,69.007,29.766
	c2.703,1.814,5.057,4.064,7.497,6.218c2.395,2.2,4.957,4.25,7.229,6.599c4.377,4.844,9.157,9.397,12.939,14.804
	c8.35,10.209,14.636,21.988,20.133,34.011c2.236,6.227,5.024,12.291,6.468,18.781c0.83,3.211,1.787,6.376,2.503,9.633l1.624,9.959
	l0.789,4.98l0.29,4.79l0.59,9.556c0.063,3.755-0.199,6.708-0.29,10.096c-0.189,3.279-0.091,6.581-0.688,9.815
	c-0.943,6.486-1.619,13.008-3.442,19.275c-0.835,3.143-1.429,6.35-2.463,9.42c-1.079,3.057-2.159,6.104-3.233,9.139
	c-0.971,3.085-2.316,6.001-3.715,8.886c-1.365,2.902-2.722,5.791-4.073,8.677c-1.618,2.738-3.237,5.469-4.848,8.19
	c-1.588,2.737-3.193,5.451-5.139,7.918c-14.464,20.505-33.132,37.082-53.505,48.049c-10.25,5.353-20.654,9.819-31.168,12.744
	c-5.298,1.356-10.342,3.035-15.771,3.688c-5.279,0.799-10.727,1.94-15.394,2c-19.878,1.588-38.938-0.457-54.733-5.129
	c-15.842-4.642-29.222-10.49-39.236-16.928c-2.54-1.587-5.021-2.83-7.207-4.476c-2.195-1.615-4.254-3.125-6.168-4.541
	c-1.905-1.419-3.665-2.734-5.279-3.937c-1.383-1.234-2.635-2.359-3.76-3.356c-4.495-4.019-6.894-6.158-6.894-6.158L125.724,323.622z
	"/>
<path d="M157.834,291.57c0,0,1.628,1.537,4.685,4.426c0.762,0.717,1.615,1.523,2.554,2.408c0.894,0.688,1.873,1.443,2.93,2.26
	c2.091,1.633,4.44,3.568,7.602,5.415c5.928,4.091,13.928,7.81,23.466,10.935c9.62,3.131,20.881,4.703,33.621,4.061
	c3.543,0.025,6.314-0.617,9.458-0.984c3.069-0.249,6.312-1.232,9.583-1.973c6.54-1.614,13.049-4.215,19.512-7.354
	c12.857-6.443,24.817-16.494,34.297-29.14c9.646-12.568,15.819-28.301,18.296-44.815c0.458-2.05,0.44-4.164,0.617-6.254
	c0.118-1.991,0.336-4.44,0.386-6.078l-0.236-6.667l-0.112-3.343l-0.427-3.08l-0.84-6.168c-0.395-2.068-0.971-4.146-1.441-6.223
	c-0.803-4.218-2.514-8.164-3.841-12.236c-3.349-7.86-7.202-15.634-12.469-22.428c-2.362-3.596-5.405-6.64-8.183-9.896
	c-1.433-1.587-3.089-2.953-4.612-4.445c-1.563-1.451-3.062-2.984-4.803-4.213c-13.244-10.672-28.914-18.105-45.037-20.881
	c-16.074-2.966-32.397-1.991-46.833,2.095c-14.554,4.109-27.235,11.438-37.399,19.911c-10.155,8.527-17.938,18.178-23.294,27.594
	c-1.406,2.318-2.44,4.735-3.624,6.98c-1.225,2.231-2.123,4.499-2.93,6.708c-0.816,2.2-1.714,4.281-2.363,6.332
	c-0.572,2.077-1.116,4.064-1.633,5.946c-1.197,3.737-1.501,7.234-2.082,10.219c-0.612,2.989-0.739,5.574-0.862,7.665
	c-0.272,4.191-0.421,6.427-0.421,6.427s0.082-2.24,0.222-6.44c0.059-2.104,0.104-4.703,0.626-7.714
	c0.48-3.012,0.68-6.545,1.769-10.341c0.463-1.914,0.948-3.933,1.456-6.046c0.594-2.091,1.429-4.218,2.186-6.468
	c0.744-2.263,1.587-4.59,2.744-6.885c1.125-2.309,2.104-4.803,3.456-7.198c5.144-9.733,12.754-19.838,22.904-28.927
	c10.159-9.03,23.013-17.026,38.03-21.789c15.053-4.757,31.934-6.318,49.023-3.728c17.126,2.408,34.069,9.742,48.639,20.745
	c1.904,1.27,3.563,2.848,5.297,4.354c1.692,1.542,3.506,2.976,5.111,4.631c3.106,3.397,6.48,6.599,9.167,10.395
	c5.914,7.18,10.391,15.461,14.3,23.938c1.604,4.386,3.583,8.667,4.631,13.244c0.594,2.268,1.283,4.495,1.796,6.803l1.188,7.08
	l0.565,3.538l0.224,3.334l0.443,6.658c0.05,2.794-0.122,4.78-0.177,7.211c-0.122,2.318-0.055,4.653-0.472,6.944
	c-2.138,18.391-8.514,36.225-18.887,50.719c-10.199,14.578-23.397,26.396-37.849,34.243c-7.266,3.837-14.649,7.038-22.119,9.151
	c-3.769,0.989-7.338,2.174-11.248,2.672c-3.778,0.6-7.751,1.41-10.948,1.465c-14.063,1.171-27.702-0.23-38.963-3.523
	c-11.307-3.279-20.868-7.424-28.029-11.992c-3.687-2.014-6.866-4.39-9.624-6.449c-1.374-1.023-2.644-1.973-3.81-2.838
	c-0.966-0.854-1.841-1.634-2.631-2.332c-3.143-2.785-4.821-4.271-4.821-4.271L157.834,291.57z"/>
<path d="M190.131,259.74c0,0,0.912,0.875,2.622,2.522c0.431,0.413,0.907,0.871,1.429,1.378c0.449,0.35,0.939,0.726,1.465,1.139
	c1.034,0.83,2.186,1.823,3.864,2.826c3.093,2.19,7.275,4.2,12.287,5.91c5.088,1.709,10.903,2.644,17.861,2.363
	c2.082,0.036,3.311-0.317,4.983-0.467c1.551-0.082,3.324-0.635,5.062-0.975c3.493-0.825,6.967-2.168,10.45-3.787
	c6.894-3.379,13.375-8.663,18.56-15.402c5.261-6.708,8.698-15.135,10.154-24.061c0.363-2.131,0.449-4.744,0.621-6.581l-0.086-3.769
	l-0.051-1.882l-0.213-1.633c-0.312-4.304-1.638-9.021-3.151-13.371c-3.401-8.681-8.957-16.686-16.191-22.618
	c-7.198-5.955-15.779-10.15-24.669-11.796c-8.862-1.751-17.955-1.32-25.979,0.853c-8.118,2.19-15.239,6.182-20.981,10.853
	c-5.737,4.699-10.164,10.051-13.239,15.303c-2.989,5.284-5.071,10.25-6.109,14.532c-1.116,4.25-1.66,7.706-1.787,10.068
	c-0.186,2.363-0.286,3.628-0.286,3.628s0.027-1.265,0.086-3.642c-0.014-2.376,0.335-5.873,1.229-10.236
	c0.812-4.395,2.63-9.556,5.402-15.162c2.857-5.569,7.111-11.375,12.849-16.631c5.733-5.225,13.03-9.892,21.607-12.735
	c8.635-2.839,18.296-3.855,28.165-2.481c9.893,1.27,19.748,5.37,28.27,11.651c8.556,6.25,15.479,15.026,20.012,24.94
	c0.962,2.549,2.153,5.03,2.794,7.697l1.102,3.964l0.744,4.195l0.358,2.104l0.148,1.891l0.295,3.76
	c0.072,1.81-0.03,2.848-0.045,4.309c-0.067,1.36,0.009,2.735-0.218,4.073c-1.111,10.803-4.749,21.33-10.731,29.957
	c-5.899,8.672-13.618,15.733-22.101,20.505c-4.271,2.326-8.631,4.271-13.049,5.592c-2.245,0.604-4.305,1.348-6.703,1.679
	c-2.241,0.372-4.812,0.907-6.536,0.952c-8.19,0.816-16.44,0.06-23.153-1.809c-6.776-1.853-12.522-4.283-16.845-6.945
	c-2.2-1.174-4.177-2.589-5.887-3.845c-0.848-0.626-1.633-1.202-2.354-1.728c-0.554-0.472-1.052-0.907-1.506-1.292
	c-1.801-1.546-2.762-2.372-2.762-2.372L190.131,259.74z"/>
<rect x="57.639" y="285.087" transform="matrix(-0.7072 0.7071 -0.7071 -0.7072 474.8464 391.651)" width="197.357" height="18.145"/>
</svg>
