<?xml version="1.0" encoding="utf-8"?>
<!-- Generator: Adobe Illustrator 16.0.4, SVG Export Plug-In . SVG Version: 6.00 Build 0)  -->
<!DOCTYPE svg PUBLIC "-//W3C//DTD SVG 1.1//EN" "http://www.w3.org/Graphics/SVG/1.1/DTD/svg11.dtd">
<svg version="1.1" id="Layer_1" xmlns="http://www.w3.org/2000/svg" xmlns:xlink="http://www.w3.org/1999/xlink" x="0px" y="0px"
	 width="16px" height="16px" viewBox="0 0 16 16" enable-background="new 0 0 16 16" xml:space="preserve">
<path d="M3.009,0.05h0.122c0.503,0.111,0.755,0.352,0.755,0.722v5.452C5.108,5.046,6.48,4.458,8.006,4.458
	c1.472,0,2.812,0.559,4.019,1.676c1.147,1.207,1.721,2.562,1.721,4.064c0,2.153-1.021,3.849-3.062,5.085
	c-0.882,0.444-1.733,0.666-2.556,0.666H7.795c-1.548,0-2.987-0.725-4.32-2.177c-0.814-1.088-1.221-2.375-1.221-3.862V0.771
	C2.254,0.402,2.506,0.161,3.009,0.05z M3.887,10.076v0.211c0,1.71,0.895,2.982,2.687,3.818c0.48,0.142,0.914,0.212,1.3,0.212h0.254
	c1.666,0,2.924-0.896,3.775-2.688c0.14-0.539,0.213-0.959,0.213-1.254V10.12c0-1.701-0.912-2.975-2.732-3.819
	c-0.557-0.14-0.989-0.212-1.3-0.212H7.917c-1.666,0-2.924,0.882-3.775,2.644C3.972,9.229,3.887,9.676,3.887,10.076z"/>
</svg>
